<mxfile host="app.diagrams.net" modified="2024-04-28T10:37:32.722Z" agent="Mozilla/5.0 (Windows NT 10.0; Win64; x64) AppleWebKit/537.36 (KHTML, like Gecko) Chrome/122.0.0.0 Safari/537.36 OPR/108.0.0.0" version="24.3.1" etag="kLIIgLlxbV8En-pXFvQu" type="github">
  <diagram name="Page-1" id="47yck_NLgwvBO6wG_AYM">
    <mxGraphModel>
      <root>
        <mxCell id="0" />
        <mxCell id="1" parent="0" />
      </root>
    </mxGraphModel>
  </diagram>
</mxfile>
